<svg xmlns="http://www.w3.org/2000/svg" version="1.1" xmlns:xlink="http://www.w3.org/1999/xlink" xmlns:svgjs="http://svgjs.com/svgjs" width="1920" height="1080" preserveAspectRatio="none" viewBox="0 0 1920 1080"><g mask="url(&quot;#SvgjsMask1041&quot;)" fill="none"><rect width="1920" height="1080" x="0" y="0" fill="rgba(15, 20, 63, 1)"></rect><path d="M597.944,1129.288C666.906,1132.111,726.722,1083.486,758.877,1022.414C788.909,965.374,784.689,895.975,749.072,842.245C716.781,793.534,656.32,776.856,597.944,779.642C544.819,782.178,497.454,810.082,469.896,855.571C441.208,902.925,434.863,959.959,458.323,1010.109C486.113,1069.513,532.416,1126.605,597.944,1129.288" fill="rgba(28, 93, 142, 0.5)" class="triangle-float3"></path><path d="M604.369,1022.651C669.033,1017.917,707.526,957.149,738.116,899.982C766.417,847.093,789.682,785.033,759.143,733.404C728.981,682.412,663.606,674.834,604.369,673.871C542.739,672.869,475.786,677.599,440.629,728.227C401.018,785.268,398.027,861.715,431.78,922.407C466.437,984.724,533.253,1027.857,604.369,1022.651" fill="rgba(28, 93, 142, 0.5)" class="triangle-float2"></path><path d="M90.519,412.814C153.503,409.866,209.506,373.864,239.7,318.511C268.641,265.454,260.904,203.646,234.186,149.435C203.199,86.562,160.544,18.927,90.519,15.822C16.996,12.562,-41.479,71.208,-77.049,135.636C-111.278,197.635,-121.62,273.1,-84.981,333.706C-49.399,392.563,21.818,416.029,90.519,412.814" fill="rgba(28, 93, 142, 0.5)" class="triangle-float1"></path><path d="M1186.701,165.42C1221.827,167.043,1256.04,151.3,1274.813,121.567C1294.913,89.732,1298.859,49.403,1280.817,16.358C1262.052,-18.011,1225.726,-43.038,1186.701,-39.816C1151.368,-36.899,1131.677,-1.91,1116.132,29.953C1102.943,56.987,1097.752,87.35,1111.649,114.027C1126.663,142.849,1154.238,163.92,1186.701,165.42" fill="rgba(28, 93, 142, 0.5)" class="triangle-float3"></path><path d="M1019.768,1019.061C1054.605,1019.202,1080.081,991.218,1098.65,961.742C1118.996,929.446,1140.336,890.661,1121.61,857.4C1102.691,823.797,1058.217,818.671,1019.768,821.635C986.885,824.17,957.985,842.45,941.921,871.254C926.285,899.291,927.024,932.705,941.983,961.108C958.132,991.77,985.113,1018.921,1019.768,1019.061" fill="rgba(28, 93, 142, 0.5)" class="triangle-float1"></path><path d="M97.36,596.477C181.337,596.472,256.29,543.772,295.005,469.251C330.961,400.042,314.175,320.003,276.458,251.738C237.159,180.61,178.497,116.039,97.36,111.525C9.128,106.616,-77.2,152.337,-119.939,229.682C-161.477,304.853,-144.101,395.383,-100.326,469.274C-57.52,541.53,13.376,596.482,97.36,596.477" fill="rgba(28, 93, 142, 0.5)" class="triangle-float1"></path><path d="M26.873,988.088C76.089,986.628,115.263,951.439,139.408,908.527C163.015,866.571,168.742,817.126,147.327,774.011C123.234,725.504,81.004,680.147,26.873,681.961C-25.405,683.713,-55.728,735.499,-80.364,781.641C-103.09,824.206,-120.094,872.745,-97.852,915.565C-74.092,961.307,-24.649,989.616,26.873,988.088" fill="rgba(28, 93, 142, 0.5)" class="triangle-float1"></path><path d="M577.581,400.581C634.288,400.737,685.097,366.204,712.108,316.343C737.891,268.749,734.643,210.414,705.205,164.99C678.108,123.178,627.393,107.626,577.581,108.763C530.024,109.848,485.423,130.604,459.661,170.593C431.447,214.389,420.56,269.248,444.329,315.607C470.09,365.85,521.119,400.426,577.581,400.581" fill="rgba(28, 93, 142, 0.5)" class="triangle-float2"></path><path d="M726.852,852.775C806.271,851.883,865.491,788.38,904.595,719.249C942.961,651.423,966.643,568.104,925.207,502.109C885.496,438.862,801.388,431.526,726.852,436.158C661.765,440.203,602.338,469.527,567.048,524.366C528.281,584.608,510.713,658.904,542.058,723.32C577.328,795.803,646.248,853.68,726.852,852.775" fill="rgba(28, 93, 142, 0.5)" class="triangle-float2"></path><path d="M1500.286,1325.343C1590.032,1321.738,1683.379,1295.635,1727.279,1217.277C1770.425,1140.265,1741.423,1048.925,1698.304,971.898C1653.864,892.511,1591.264,812.288,1500.286,811.781C1408.725,811.271,1346.311,891.637,1298.411,969.67C1247.264,1052.992,1191.086,1151.85,1239.346,1236.877C1287.936,1322.486,1401.928,1329.294,1500.286,1325.343" fill="rgba(28, 93, 142, 0.5)" class="triangle-float1"></path><path d="M1670.211,980.767C1724.388,981.421,1772.795,945.252,1796.232,896.402C1817.052,853.006,1798.83,804.963,1774.477,763.446C1750.512,722.591,1717.53,683.648,1670.211,681.559C1619.808,679.334,1573.679,709.654,1548.68,753.477C1523.906,796.906,1525.778,849.33,1549.353,893.421C1574.474,940.402,1616.94,980.124,1670.211,980.767" fill="rgba(28, 93, 142, 0.5)" class="triangle-float1"></path><path d="M1348.738,609.365C1385.467,609.173,1419.461,588.143,1436.308,555.504C1451.957,525.186,1442.299,490.323,1425.514,460.619C1408.379,430.294,1383.471,403.138,1348.738,400.531C1309.486,397.585,1268.557,413.202,1249.014,447.37C1229.578,481.349,1239.046,523.093,1259.567,556.428C1278.989,587.977,1311.691,609.559,1348.738,609.365" fill="rgba(28, 93, 142, 0.5)" class="triangle-float3"></path><path d="M1026.369,756.107C1077.775,759.467,1124.475,726.884,1150.223,682.264C1175.961,637.661,1180.094,581.392,1152.15,538.138C1126.078,497.782,1074.291,487.118,1026.369,490.555C984.736,493.541,948.696,517.721,928.388,554.188C908.653,589.625,910.001,631.227,927.709,667.719C948.369,710.295,979.146,753.02,1026.369,756.107" fill="rgba(28, 93, 142, 0.5)" class="triangle-float2"></path><path d="M641.347,305.266C673.109,303.909,695.01,277.207,710.768,249.596C726.346,222.3,737.937,190.031,722.847,162.463C707.297,134.055,673.694,121.192,641.347,122.775C611.618,124.23,587.982,144.343,572.586,169.817C556.512,196.414,546.76,228.293,560.828,256.004C576.093,286.074,607.655,306.706,641.347,305.266" fill="rgba(28, 93, 142, 0.5)" class="triangle-float3"></path><path d="M1196.693,780.929C1249.523,783.27,1305.773,769.19,1333.357,724.072C1361.906,677.376,1354.286,617.327,1324.977,571.104C1297.671,528.039,1247.684,508.287,1196.693,508.538C1146.197,508.786,1095.701,528.554,1070.576,572.356C1045.556,615.975,1053.494,669.793,1079.513,712.823C1104.568,754.259,1148.318,778.785,1196.693,780.929" fill="rgba(28, 93, 142, 0.5)" class="triangle-float3"></path><path d="M562.82,181.425C602.191,184.416,641.15,163.922,660.333,129.411C679.053,95.733,671.002,55.143,651.476,21.926C632.255,-10.772,600.733,-35.386,562.82,-36.478C523.038,-37.624,482.357,-19.192,464.851,16.55C448.757,49.41,469.292,84.863,487.983,116.319C506.086,146.785,527.483,178.741,562.82,181.425" fill="rgba(28, 93, 142, 0.5)" class="triangle-float3"></path></g><defs><mask id="SvgjsMask1041"><rect width="1920" height="1080" fill="#ffffff"></rect></mask><style>
            @keyframes float1 {
                0%{transform: translate(0, 0)}
                50%{transform: translate(-10px, 0)}
                100%{transform: translate(0, 0)}
            }

            .triangle-float1 {
                animation: float1 5s infinite;
            }

            @keyframes float2 {
                0%{transform: translate(0, 0)}
                50%{transform: translate(-5px, -5px)}
                100%{transform: translate(0, 0)}
            }

            .triangle-float2 {
                animation: float2 4s infinite;
            }

            @keyframes float3 {
                0%{transform: translate(0, 0)}
                50%{transform: translate(0, -10px)}
                100%{transform: translate(0, 0)}
            }

            .triangle-float3 {
                animation: float3 6s infinite;
            }
        </style></defs></svg>